/* XPM */
static char *_c5a0c808a554228b37f63ffbd572df5[] = {
/* columns rows colors chars-per-pixel */
"16 16 108 2 ",
"   c #F78B00",
".  c #F78C00",
"X  c #F78F00",
"o  c #F79000",
"O  c #F79100",
"+  c #F79200",
"@  c #F79400",
"#  c #F89400",
"$  c #F89500",
"%  c #F89601",
"&  c #F89604",
"*  c #F89605",
"=  c #F8960A",
"-  c #F79613",
";  c #F89714",
":  c #F8971C",
">  c #F8971D",
",  c #F8981A",
"<  c #F79825",
"1  c #F79827",
"2  c #F89820",
"3  c #F89822",
"4  c #F89824",
"5  c #F99824",
"6  c #F89825",
"7  c #F99825",
"8  c #F89826",
"9  c #F99926",
"0  c #F89827",
"q  c #F89927",
"w  c #F99927",
"e  c #FB9A26",
"r  c #FB9A27",
"t  c #F89828",
"y  c #F89928",
"u  c #F99928",
"i  c #F89829",
"p  c #F89929",
"a  c #FB9A2A",
"s  c #FB9A2B",
"d  c #FF9D2A",
"f  c #F8992C",
"g  c #F9992C",
"h  c #F8992D",
"j  c #F99A2C",
"k  c #F89A2D",
"l  c #F99A2D",
"z  c #F89A2E",
"x  c #FB9B2F",
"c  c #FF9E2C",
"v  c #F89A30",
"b  c #F89A31",
"n  c #F89A32",
"m  c #FB9C32",
"M  c #FB9C33",
"N  c #FF9E30",
"B  c #FF9F33",
"V  c #F89B36",
"C  c #FF9F37",
"Z  c #F89D3F",
"A  c #FFA427",
"S  c #FFA52A",
"D  c #FFA42B",
"F  c #FFA32C",
"G  c #FFA42C",
"H  c #FFA42E",
"J  c #FFA42F",
"K  c #FFA038",
"L  c #F89D40",
"P  c #F89E43",
"I  c #F89F4A",
"U  c #F8A04C",
"Y  c #F8A150",
"T  c #F8A253",
"R  c #F9AC6E",
"E  c #F9AF76",
"W  c #F9B380",
"Q  c #F9B788",
"!  c #F9BA8F",
"~  c #FABD94",
"^  c #FAC5A4",
"/  c #FAC6A5",
"(  c #FAC7A6",
")  c #FBCAAC",
"_  c #FBCBAE",
"`  c #FBCCB0",
"'  c #FBCDB1",
"]  c #FBD5BF",
"[  c #FBD7C2",
"{  c #FBD7C3",
"}  c #FBD8C3",
"|  c #FBD8C4",
" . c #FCD9C6",
".. c #FCDAC7",
"X. c #FCDBC9",
"o. c #FCE1D3",
"O. c #FDE5D9",
"+. c #FDE9DF",
"@. c #FDEBE1",
"#. c #FDEEE6",
"$. c #FDF0EA",
"%. c #FEF2EC",
"&. c #FEF4EF",
"*. c #FEF5F0",
"=. c #FEF7F3",
"-. c #FFFCFB",
";. c gray100",
":. c None",
/* pixels */
":.:.:.:.:.:.:.:.:.:.:.:.:.:.:.:.",
":.:.:.:.:.9 y y y y y :.:.:.:.:.",
":.:.:.:.y J C M M K J 9 :.:.:.:.",
":.:.:.S l , . O O . ; l S :.:.:.",
":.:.y l = L [ ` ) [ L # l < :.:.",
":.y S l # O.;.[ o.;.#.# z J < :.",
":.9 c ; I -.;.( W [ ) P > d y :.",
":.9 y v O ..;.;.;.@.Q O v 9 9 :.",
":.9 9 y > O ~ X.&.;.;.R O x < :.",
":.9 N O E &.@.9 U =.;.! . B y :.",
":.9 J 4 v &.;.{ ` ;.$.M 2 J < :.",
":.:.8 v # I { ( ( ..T # f 9 :.:.",
":.:.:.A y *   # #   * y A :.:.:.",
":.:.:.:.4 J C l y C J 9 :.:.:.:.",
":.:.:.:.:.9 4 9 9 9 9 :.:.:.:.:.",
":.:.:.:.:.:.:.:.:.:.:.:.:.:.:.:."
};
