/* XPM */
static char *acbe4839f97146698d74321141c21481[] = {
/* columns rows colors chars-per-pixel */
"32 32 179 2 ",
"   c #F77F00",
".  c #F78100",
"X  c #F78800",
"o  c #F78C00",
"O  c #F78D00",
"+  c #F78E00",
"@  c #F78F00",
"#  c #F79000",
"$  c #F79100",
"%  c #F79200",
"&  c #F79300",
"*  c #F79400",
"=  c #F89300",
"-  c #F89504",
";  c #F89608",
":  c #F8960C",
">  c #F89613",
",  c #F89614",
"<  c #F89616",
"1  c #F8971B",
"2  c #F79725",
"3  c #F79726",
"4  c #F89720",
"5  c #F89725",
"6  c #F89726",
"7  c #F79825",
"8  c #F79826",
"9  c #F79926",
"0  c #F79827",
"q  c #F79927",
"w  c #F89820",
"e  c #F89823",
"r  c #F89824",
"t  c #F89825",
"y  c #F89925",
"u  c #F99925",
"i  c #F89826",
"p  c #F99826",
"a  c #F89926",
"s  c #F99926",
"d  c #F89827",
"f  c #F89927",
"g  c #F99927",
"h  c #FB9A26",
"j  c #FA9A27",
"k  c #FB9A27",
"l  c #FB9B27",
"z  c #FC9A26",
"x  c #FC9B26",
"c  c #FC9B27",
"v  c #FD9B27",
"b  c #FF9D26",
"n  c #FF9D27",
"m  c #FF9E27",
"M  c #F79828",
"N  c #F89828",
"B  c #F99828",
"V  c #F89928",
"C  c #F99928",
"Z  c #F89929",
"A  c #F99A28",
"S  c #FB9B28",
"D  c #F8992A",
"F  c #F8992B",
"G  c #FC9B28",
"H  c #FC9C28",
"J  c #FD9C28",
"K  c #FF9D29",
"L  c #FF9E28",
"P  c #FF9E29",
"I  c #FF9F29",
"U  c #F8992C",
"Y  c #F8992D",
"T  c #F8992E",
"R  c #F8992F",
"E  c #F89A2E",
"W  c #F89A30",
"Q  c #F89A31",
"!  c #F89A32",
"~  c #F89A33",
"^  c #F89B34",
"/  c #F89A35",
"(  c #F89B35",
")  c #F89B36",
"_  c #F89B38",
"`  c #FFA127",
"'  c #FFA227",
"]  c #FFA128",
"[  c #FFA228",
"{  c #FFA328",
"}  c #FFA229",
"|  c #FFA329",
" . c #FFA22A",
".. c #FFA32A",
"X. c #FFA428",
"o. c #FFA429",
"O. c #FFA42A",
"+. c #FFA52A",
"@. c #FFA52B",
"#. c #F89D40",
"$. c #F89E46",
"%. c #F89F49",
"&. c #F8A04C",
"*. c #F8A04D",
"=. c #F8A357",
"-. c #F9A864",
";. c #F9A865",
":. c #F9AA69",
">. c #F9AA6A",
",. c #F9AF76",
"<. c #F9B37F",
"1. c #F9B380",
"2. c #F9B481",
"3. c #F9B482",
"4. c #F9B583",
"5. c #F9B584",
"6. c #F9B788",
"7. c #F9B789",
"8. c #F9B88A",
"9. c #F9B88B",
"0. c #F9B88C",
"q. c #FAB98D",
"w. c #FABA8E",
"e. c #FABA8F",
"r. c #FABC92",
"t. c #FABD93",
"y. c #FABD94",
"u. c #FABE96",
"i. c #FABF98",
"p. c #FAC099",
"a. c #FAC29E",
"s. c #FAC39F",
"d. c #FAC4A1",
"f. c #FAC4A2",
"g. c #FAC5A4",
"h. c #FAC6A6",
"j. c #FAC7A6",
"k. c #FAC7A7",
"l. c #FBCBAE",
"z. c #FBCCB0",
"x. c #FBD1B8",
"c. c #FCD7C2",
"v. c #FCD9C5",
"b. c #FCDAC8",
"n. c #FCDCCB",
"m. c #FCDDCB",
"M. c #FCDDCC",
"N. c #FCDFD0",
"B. c #FCE2D3",
"V. c #FCE2D4",
"C. c #FCE3D5",
"Z. c #FDE4D7",
"A. c #FDE5D8",
"S. c #FDE5D9",
"D. c #FDE7DC",
"F. c #FDE8DE",
"G. c #FDEAE0",
"H. c #FDECE4",
"J. c #FDEEE6",
"K. c #FDF0E9",
"L. c #FDF0EA",
"P. c #FEF1EB",
"I. c #FEF3ED",
"U. c #FEF4EF",
"Y. c #FEF6F2",
"T. c #FEF8F5",
"R. c #FEF9F6",
"E. c #FEF9F7",
"W. c #FEFAF8",
"Q. c #FEFBF9",
"!. c #FFFBF9",
"~. c #FFFCFA",
"^. c #FFFCFB",
"/. c #FFFDFC",
"(. c #FFFDFD",
"). c #FFFEFD",
"_. c #FFFEFE",
"`. c gray100",
"'. c None",
/* pixels */
"'.'.'.'.'.'.'.'.'.'.'.'.'.'.'.'.'.'.'.'.'.'.'.'.'.'.'.'.'.'.'.'.",
"'.'.'.'.'.'.'.'.'.'.'.'.'.'.'.'.'.'.'.'.'.'.'.'.'.'.'.'.'.'.'.'.",
"'.'.'.'.'.'.'.'.'.'.'.'.D D d d d D D d '.'.'.'.'.'.'.'.'.'.'.'.",
"'.'.'.'.'.'.'.'.'.'.D X...P J d D H P X.X.M 0 '.'.'.'.'.'.'.'.'.",
"'.'.'.'.'.'.'.'.0 X.P M d d d d d d d D d J X.H '.'.'.'.'.'.'.'.",
"'.'.'.'.'.'.'.P ..A 0 M D d D D M H d D d 0 0 P P '.'.'.'.'.'.'.",
"'.'.'.'.'.'...0 D d d D d W Q d M ! ! D d D D A D X.'.'.'.'.'.'.",
"'.'.'.'.'.P d d d d d Q Y * & Y E * & M W d d d d d ..'.'.'.'.'.",
"'.'.'.'.D ..6 d d d Q & & <.4.> 4 6.5.; & Q 6 D d d P 0 '.'.'.'.",
"'.'.'.'.X.d d d d Q & 4.J.`.`.d.h.`.`.K.e.o Q 6 d d A X.D '.'.'.",
"'.'.'.0 J d d d Q & 1.`.`.~.`.v.m.`.!.`.`.5.& Q d d d J d '.'.'.",
"'.'.'...d d d d Q & G.`.~.`.S.:.q.!.`.`.`.J.& Y D d d 0 X.'.'.'.",
"'.'.d X.d d d D < %.T.`.`.`.1..   r.`.!.E.K.&.< D d d 0 ..0 '.'.",
"'.'.d J d d d d 4 _ Y.`.`.`.T.M.h.,.-.Q #.#.M 6 d d d 0 P d '.'.",
"'.'.0 J d d d u / o b.`.~.`.`.`.`.`.J.x.&.& E 0 d d d u J d '.'.",
"'.'.d d d d u d D 1 / D.`.`.`.!.!.`.`.`.!.9.& W u d 0 A d d '.'.",
"'.'.d d u 0 d d d Q D : g.J.`.`.`.`.`.!.`.T.=.- E 0 0 u d d '.'.",
"'.'.u J 0 u d d D = o & X o :.a.m.!.`.`.`.`.l.o Q d u 0 d d '.'.",
"'.'.d J u 0 d Y & y.Z.S.L.B.o & o :.T.`.~.`.c.o ) d d u J d '.'.",
"'.'.d ' 3 u d / o k.`.`.`.`.9.o = 3 U.`.`.`.z.o ) d d d X.A '.'.",
"'.'.'...d d u 0 < %.T.`.!.`.L.h.y.N.`.~.`.`.-.* D d d e X.'.'.'.",
"'.'.'.0 x u 0 u Q o h.`.`.`.Z.r.i.V.`.`.`.l.o ! d 0 u J d '.'.'.",
"'.'.'.'.' d d d d Y & d.U.`.D.i.a.V.`.U.a.& E u d u d X.d '.'.'.",
"'.'.'.'.u J u d d d Y o D 6.5.q.y.4.q.e o ! 3 6 3 e J d '.'.'.'.",
"'.'.'.'.'.J d u e e 3 ! e o & & & * o u ! e 4 u d u J '.'.'.'.'.",
"'.'.'.'.'.'.' u u u d u M W Y Y Y Y W d 3 u d u e ' '.'.'.'.'.'.",
"'.'.'.'.'.'.'.J J u u d d e 0 3 6 d d d d u d J J '.'.'.'.'.'.'.",
"'.'.'.'.'.'.'.'.d ' x d d u u e u d 4 6 u d X.d '.'.'.'.'.'.'.'.",
"'.'.'.'.'.'.'.'.'.'.d ' ' J x d u d J ' X.d e '.'.'.'.'.'.'.'.'.",
"'.'.'.'.'.'.'.'.'.'.'.'.u u u d u e u u '.'.'.'.'.'.'.'.'.'.'.'.",
"'.'.'.'.'.'.'.'.'.'.'.'.'.'.'.'.'.'.'.'.'.'.'.'.'.'.'.'.'.'.'.'.",
"'.'.'.'.'.'.'.'.'.'.'.'.'.'.'.'.'.'.'.'.'.'.'.'.'.'.'.'.'.'.'.'."
};
