/* XPM */
static char *b293f3bb8a69400b807264da9c22be43[] = {
/* columns rows colors chars-per-pixel */
"128 128 53 1 ",
"  c #F78700",
". c #F78D00",
"X c #F79000",
"o c #F89300",
"O c #F8960B",
"+ c #F89614",
"@ c #F8971C",
"# c #F8981D",
"$ c #F79726",
"% c #F89724",
"& c #F79826",
"* c #F89826",
"= c #F79928",
"- c #F89928",
"; c #F89B34",
": c #F89C3A",
"> c #FFA127",
", c #FFA229",
"< c #F89D41",
"1 c #F8A04C",
"2 c #F8A253",
"3 c #F8A55A",
"4 c #F9A761",
"5 c #F9A865",
"6 c #F9AB6B",
"7 c #F9AD72",
"8 c #F9B17B",
"9 c #F9B583",
"0 c #F9B788",
"q c #FABA8D",
"w c #FABD93",
"e c #FABF98",
"r c #FAC19C",
"t c #FAC5A3",
"y c #FAC7A8",
"u c #FBC9AB",
"i c #FBCEB3",
"p c #FBD0B7",
"a c #FBD2BA",
"s c #FCD6C1",
"d c #FCDAC7",
"f c #FCDDCC",
"g c #FCDFD0",
"h c #FCE2D4",
"j c #FDE6DA",
"k c #FDE9DE",
"l c #FDECE2",
"z c #FDEFE8",
"x c #FEF2EC",
"c c #FEF6F2",
"v c #FEF9F6",
"b c #FFFFFF",
"n c None",
/* pixels */
"nnnnnnnnnnnnnnnnnnnnnnnnnnnnnnnnnnnnnnnnnnnnnnnnnnnnnnnnnnnnnnnnnnnnnnnnnnnnnnnnnnnnnnnnnnnnnnnnnnnnnnnnnnnnnnnnnnnnnnnnnnnnnnnn",
"nnnnnnnnnnnnnnnnnnnnnnnnnnnnnnnnnnnnnnnnnnnnnnnnnnnnnnnnnnnnnnnnnnnnnnnnnnnnnnnnnnnnnnnnnnnnnnnnnnnnnnnnnnnnnnnnnnnnnnnnnnnnnnnn",
"nnnnnnnnnnnnnnnnnnnnnnnnnnnnnnnnnnnnnnnnnnnnnnnnnnnnnnnnnnnnnnnnnnnnnnnnnnnnnnnnnnnnnnnnnnnnnnnnnnnnnnnnnnnnnnnnnnnnnnnnnnnnnnnn",
"nnnnnnnnnnnnnnnnnnnnnnnnnnnnnnnnnnnnnnnnnnnnnnnnnnnnnnnnnnnnnnnnnnnnnnnnnnnnnnnnnnnnnnnnnnnnnnnnnnnnnnnnnnnnnnnnnnnnnnnnnnnnnnnn",
"nnnnnnnnnnnnnnnnnnnnnnnnnnnnnnnnnnnnnnnnnnnnnnnnnnnnnnnnnnnnnnnnnnnnnnnnnnnnnnnnnnnnnnnnnnnnnnnnnnnnnnnnnnnnnnnnnnnnnnnnnnnnnnnn",
"nnnnnnnnnnnnnnnnnnnnnnnnnnnnnnnnnnnnnnnnnnnnnnnnnnnnnnnnnnnnnnnnnnnnnnnnnnnnnnnnnnnnnnnnnnnnnnnnnnnnnnnnnnnnnnnnnnnnnnnnnnnnnnnn",
"nnnnnnnnnnnnnnnnnnnnnnnnnnnnnnnnnnnnnnnnnnnnnnnnnnnnnnnnnnnnnnnnnnnnnnnnnnnnnnnnnnnnnnnnnnnnnnnnnnnnnnnnnnnnnnnnnnnnnnnnnnnnnnnn",
"nnnnnnnnnnnnnnnnnnnnnnnnnnnnnnnnnnnnnnnnnnnnnnnnnnnnnnnnnnnnnnnnnnnnnnnnnnnnnnnnnnnnnnnnnnnnnnnnnnnnnnnnnnnnnnnnnnnnnnnnnnnnnnnn",
"nnnnnnnnnnnnnnnnnnnnnnnnnnnnnnnnnnnnnnnnnnnnnnnnnnnnnn------>,,,,,,,-----=nnnnnnnnnnnnnnnnnnnnnnnnnnnnnnnnnnnnnnnnnnnnnnnnnnnnnn",
"nnnnnnnnnnnnnnnnnnnnnnnnnnnnnnnnnnnnnnnnnnnnnnnnnn--->,,,---%--=--------,,,----nnnnnnnnnnnnnnnnnnnnnnnnnnnnnnnnnnnnnnnnnnnnnnnnn",
"nnnnnnnnnnnnnnnnnnnnnnnnnnnnnnnnnnnnnnnnnnnnnn---,,-=--=*-------------&&=&&--,,,--nnnnnnnnnnnnnnnnnnnnnnnnnnnnnnnnnnnnnnnnnnnnnn",
"nnnnnnnnnnnnnnnnnnnnnnnnnnnnnnnnnnnnnnnnnnnn-,,------------*=--=-----------------,,--nnnnnnnnnnnnnnnnnnnnnnnnnnnnnnnnnnnnnnnnnnn",
"nnnnnnnnnnnnnnnnnnnnnnnnnnnnnnnnnnnnnnnnn--,,===-------%--------=--=--&--&------=---,--nnnnnnnnnnnnnnnnnnnnnnnnnnnnnnnnnnnnnnnnn",
"nnnnnnnnnnnnnnnnnnnnnnnnnnnnnnnnnnnnnnn--,--=-==--------------------------------------,,=nnnnnnnnnnnnnnnnnnnnnnnnnnnnnnnnnnnnnnn",
"nnnnnnnnnnnnnnnnnnnnnnnnnnnnnnnnnnnnn->,-----=-=---------------%=----&-----&-&--=--=-=---,=nnnnnnnnnnnnnnnnnnnnnnnnnnnnnnnnnnnnn",
"nnnnnnnnnnnnnnnnnnnnnnnnnnnnnnnnnnn--,=-------*--------------------==---&-----------------,,=nnnnnnnnnnnnnnnnnnnnnnnnnnnnnnnnnnn",
"nnnnnnnnnnnnnnnnnnnnnnnnnnnnnnnnnn-,------*-*-----=---=--=-*-=-*---------*------------*---=*,-nnnnnnnnnnnnnnnnnnnnnnnnnnnnnnnnnn",
"nnnnnnnnnnnnnnnnnnnnnnnnnnnnnnnn*,----*-------=-=*---*---------==--==-=%-=-=*==--=*==--=--*---,=nnnnnnnnnnnnnnnnnnnnnnnnnnnnnnnn",
"nnnnnnnnnnnnnnnnnnnnnnnnnnnnnnn=,=-*---------==-----=----=-=*-----=-------*---=**=---*---==----,-nnnnnnnnnnnnnnnnnnnnnnnnnnnnnnn",
"nnnnnnnnnnnnnnnnnnnnnnnnnnnnn-,----=------*---*---=-*-=--*---=--------=---=-----------=-*-----*--,-nnnnnnnnnnnnnnnnnnnnnnnnnnnnn",
"nnnnnnnnnnnnnnnnnnnnnnnnnnnn-,----==-=-*--=--*--=--=--=*-=--=-*=-=%-=--=*---*=-==-*=---=--=-------,-nnnnnnnnnnnnnnnnnnnnnnnnnnnn",
"nnnnnnnnnnnnnnnnnnnnnnnnnnn-,-----=----=-*--=-=-*----------*----------%-=--=--------=--*-=-*-=-*---,-nnnnnnnnnnnnnnnnnnnnnnnnnnn",
"nnnnnnnnnnnnnnnnnnnnnnnnnn-,----*---*-----=---=----**==-*==--------=-------*--------*-----=-*--==---,-nnnnnnnnnnnnnnnnnnnnnnnnnn",
"nnnnnnnnnnnnnnnnnnnnnnnnn----=--=-=--=----*----*=--=--------=-*=-=--=--=-=--=-*-=*-=--=-*----=---------nnnnnnnnnnnnnnnnnnnnnnnnn",
"nnnnnnnnnnnnnnnnnnnnnnnn-,-----%=--=---=--=-====-*--=--=*=--=------%---------=-=--=--=-----=--*------%--nnnnnnnnnnnnnnnnnnnnnnnn",
"nnnnnnnnnnnnnnnnnnnnnnn=-----------*----=---===,----*-------*----=---*-*-=-*-*----*---*-=--*=--==-=--=---nnnnnnnnnnnnnnnnnnnnnnn",
"nnnnnnnnnnnnnnnnnnnnnn-,---------*--=*----=--====**=***-=-*=---*--=----*-*=----**--=-=*>-*----*>--=%---*--nnnnnnnnnnnnnnnnnnnnnn",
"nnnnnnnnnnnnnnnnnnnnn-,---------=--*--=*------==*-----=------=-=-=-------=--=--=-*----*=-*=--*-=----*----,-nnnnnnnnnnnnnnnnnnnnn",
"nnnnnnnnnnnnnnnnnnnn=,=*-----%=-===>-**-=--==**=**==--*---------%-***-----=>**--=----===-=*=-*==-***--*---,-nnnnnnnnnnnnnnnnnnnn",
"nnnnnnnnnnnnnnnnnnnn,-,---*-----=*==*----%%---==-*>==--=*-*--**--=%-*---*===-*--**-=--==-*-*--==-**>--*----,-nnnnnnnnnnnnnnnnnnn",
"nnnnnnnnnnnnnnnnnnn-==-*****--=%*-------**---**-**==*-*-*-*--*---=--*-***===---*--***=*=*-=---*=---***-*%---,nnnnnnnnnnnnnnnnnnn",
"nnnnnnnnnnnnnnnnnn-,**-*--**%%----***-**-**-=-**-*====-*-*-*-*--%-%--*-***==***=-=*--**=-***=*==*--*---*------nnnnnnnnnnnnnnnnnn",
"nnnnnnnnnnnnnnnnn=,---**-===**-**===*-=-*=***-*=-----%-=-;;---%-=--=-;;;---=----**>=*-*===*-=**-**=====>>***-,-nnnnnnnnnnnnnnnnn",
"nnnnnnnnnnnnnnnnn,-***-**=>=***-====****==****===--=;;;%oXX-------;-%.Xo+;;;-=--***=*-*-==**-*-**-**==**==**--,nnnnnnnnnnnnnnnnn",
"nnnnnnnnnnnnnnnn*,*--**--*****==**>***=====**>==--;-o..;60r-*3666671:ur71o.X+;-=**==-=**==*--*>*--*-*=**===***-*nnnnnnnnnnnnnnnn",
"nnnnnnnnnnnnnnn-,-=**--*****%=>=******>===>**===:O.@8ajcbbc+Oo+##+oo1bbbvlde1.X:;*===*-*===**-==**-**-**===*=*-,,nnnnnnnnnnnnnnn",
"nnnnnnnnnnnnnnn-**--==**-*=>**==-*****==-===**;* 2ixbbbbbbx222:--:316vbbbbbbvf8.o:*===>->****-**==*-*===*-=-==-*,nnnnnnnnnnnnnnn",
"nnnnnnnnnnnnnn-,-***====-*==**==*->=**=*-===*:o-avbbbbbbbbbvcb0ootbvvbbbbbbbbbbj7X;-*=********-*===*-*==*-**==*-,=nnnnnnnnnnnnnn",
"nnnnnnnnnnnnnn---=**==-*====***=*===**=*--==;X9xbbbbbbbbbbbbbbqoXtbbbbbbbbbbbbbbbio&-*===*-*****==****==-***>*-*=,nnnnnnnnnnnnnn",
"nnnnnnnnnnnnn-,-*****>*-**==**-*====*-*==%=;.ubbbbbbbbbbbbbbbbqootbbbbbbbbbbbbbbbbho*=**==-****->=****>=**-**=**%--nnnnnnnnnnnnn",
"nnnnnnnnnnnnn---*-**==**%-%--%%-**-%--=--%;.ibbbbbbbbbbbbbbbbbqo.ubbbbbbbbbbbbbbbbbho--=----%--*****===*****%***--,nnnnnnnnnnnnn",
"nnnnnnnnnnnn-,---*-*==-*--------**--%%---;.ubbbbbbbbbbbbbbbbbbqo.ybbbbbbbbbbbbbbbbvbsX:=--%-%--%****==>***-*==**=%,-nnnnnnnnnnnn",
"nnnnnnnnnnnn-*---**-=***---%%--%**=-=---;o8bbbbbbbbbbbbbbbbbbbqooybbbbbbbbbbbbbbbbbbb0.:%--%----*=*-==**-*=*>=*-----nnnnnnnnnnnn",
"nnnnnnnnnnnn,--%*-**=>**----%--%**%--%=--olbbbbbbbbbbbbbbbbbbbqo.ybbbbbbbbbbbbbbbbbbbx@=-----%%-**-**=--**-*=**-%--,-nnnnnnnnnnn",
"nnnnnnnnnnn->%---*--**-----%%---**-*%=-;.rbbbbbbbbbbbbbbbbbbbbqoXubbbbbbbbbbbbbbbbbbbbt.;---%----***-***=*-=*==--%---nnnnnnnnnnn",
"nnnnnnnnnnn--=-%*-**--*%-%----%-*--*----olbbbbbbbbbbbbbbbbbhr9<-o0jbbbbbbbbbbbbbbbbbbblX-*----%%*-=--*=-*-*-===*=--%,nnnnnnnnnnn",
"nnnnnnnnnnn,%--%******--%-%--%-$-**-%-;o8bbbbbbbbbbbbbbbbv9 .X@--o.7kbbbbbbbbbbbbbbbbbb8o;%-$---*****-***-=*=***-%--,-nnnnnnnnnn",
"nnnnnnnnnn*>-=*--*****%---%--$-%*-**=-;.ibbbbbbbbbbbbbbbb0.:;;-%-;:oohbbbbbbbbbbbbbbbbbi :&-%-%--=-*=*-*-***=*=*---%--nnnnnnnnnn",
"nnnnnnnnnn*-------=--%=---$-$---*-%-=%;Xhbbbbbbbbbbbbbbbl.:--==---%;O:cbbbbbbbbbbbbbbbbkX;--%------$$$-$-%-$$%--%%----nnnnnnnnnn",
"nnnnnnnnnn,---%-%--%%--%%--$-$%--*-----olbbbbbbbbbbbbbbbf.;--%--=%--:.ubbbbbbbbbbbbbbbbx;%-%--%-%$-$--$--------$---%-,nnnnnnnnnn",
"nnnnnnnnn-,%%--%%%=-%---%--%-$--*===-==-xbbbbbbbbbbbbbbblX;;-%=-%--=-O3vbbbbbbbbbbbbbbbb7o-=$-$%-----$$-%-$$-------%->-nnnnnnnnn",
"nnnnnnnnn----%%----%--=%--$-%--%-*==----xbbbbbbbbbbbbbbbbp o-:;-=--%-;olbbbbbbbvvxxlkhfd5o---$---%$-$--$%--$-%$$%-%--*=nnnnnnnnn",
"nnnnnnnnn---$---$---=%-%--$--$-$&-&&--%%xbbbbbbbbbbbbbbbbbh7o.oO-;;--;owattq07622;%.o.. O-&-&-$-$--%%-$%--%--$----&&&&,nnnnnnnnn",
"nnnnnnnnn,-%-%-&-&%--%%-$--$$%--&&&==--olbbbbbbbbbbbbbbbbbbbla02o..o=;:o...XXXoOO-%;;;:;-=&------$$-----$-%--$$--%&%&&,nnnnnnnnn",
"nnnnnnnnn,$-$---$$&-&&=&-$$$-$-$&-%%-=:.fbbbbbbbbbbbbbbbbbbbbbbvlft6%..o:<:;;;---&--%*%&-&&&--%$$-$--$---%--$--$%%-=;-,*nnnnnnnn",
"nnnnnnnn----$$&&$---&&&&$---$-$--&-%--;.rbbbbbbbbbbbbbbbbbbbbbbbbbbbxft6o.X%;;----&%-*--&&&-&-$--$-$$-%%---%$-$-%-%-%%-*nnnnnnnn",
"nnnnnnnn-,--&&&----$--$-$$-$-%$$-%&-$-;o3vbbbbbbbbbbbbbbbbbbbbbbbbbbbbbbls9=.o;;--&&&&-%-$-$$$-$$--$$-$--$--$--$-**--%>*nnnnnnnn",
"nnnnnnnn->%%&-&&-$-$$--$$-$--$----$--$%; fbbbbbbbbbbbbbbbbbbbbbbbbbbbbbbbbbxs8o.%;&&---&$-$$--$--$$--$-$$-$$-$$---**%*--nnnnnnnn",
"nnnnnnnn-*---%-%$-$--$$-$$-$$--$$--$-$%;o5bbbbbbbbbbbbbbbbbbbbbbbbbbbbbbbbbbbblr&.-;&%---$$-$--$$$-$-$$--$-$$-$$--**-*-*nnnnnnnn",
"nnnnnnnn%-=%%=%--$-$$$-%--$--$-$-$$-%-%-;.ibbbbbbbbbbbbbbbbbbbbbbbbbbbbbbbbbbbbbxtoo:%-%$--$-$$-$-$-$$-$$-$$-$$-%-**%---nnnnnnnn",
"nnnnnnnn**--%--%%-$-$---$--%-$--$--$-$$$-;.hbbbbbbbbbbbbbbbbbbbbbbbbbbbbbbbbbbbbbbj4o:%---$-$-$$-$-$-$-$$-$-%--&--%-%---nnnnnnnn",
"nnnnnnnn--%--%=%$$$--$$--%%-$-%%-$$-$--$%-#@kbbbbbbbbbbbbbbbbbbbbbbbbbbbbbbbbbbbbbbvw ;%$$-$-%$-$-%$$-$--$-$&-%-%%-%-%%>nnnnnnnn",
"nnnnnnnn>-%%%-%%-$-%%-$$$-%%--$-%$-%$-%--%;#ohbbbbbbbbbbbbbbbbbbbbbbbbbbbbbbbbbbbbbbbu.;%-$-%-%%-$%-%-$-%--$--%%&-&&%--,nnnnnnnn",
"nnnnnnnn>%--=%--$-%--$-$-%$-%$-$-%$--%-%%-%-=.ubbbbbbbbbbbbbbbbbbbbbbbbbbbbbbbbbbbbbbbt ;%-%-%--%--%-$-$%-$-%---%%-&---,nnnnnnnn",
"nnnnnnnn>*=%%%-%*%*%-%%=%-%=%%**-%-%%-%%-%&%-;.4hbbbbbbbbbbbbbbbbbbbbbbbbbbbbbbbbbbbbbb8o;-%%=%-%%%-%%-%-%=%%-%**-%-=%->nnnnnnnn",
"nnnnnnnn>%----%=%=*-%-%%-%-*=-=*%-%-&%--%%---&;o.9hbbbbbbbbbbbbbbbbbbbbbbbbbbbbbbbbbbbblo----%-%%-=%-%%=%=%-%--%=%%%%-->nnnnnnnn",
"nnnnnnnn--%%%=-%-%-%*=%-%%%%%-%*&%%&-%%&-%-%-%%;;o.7acbbbbbbbbbbbbbbbbbbbbbbbbbbbbbbbbbbu.;=%-=%=%--%--%***%%%-%%-**-%->nnnnnnnn",
"nnnnnnnn%%=%-%%%%-%%-%-%**-%-%**%-%-%--%-&%%-&%%%;;o.-wfxbbbbbbbbbbbbbbbbbbbbbbbbbbbbbbbxo-%%-%-%-%%=%%-**%-*=%--%=*%%->nnnnnnnn",
"nnnnnnnn-***%=%-*%-%%**==%-%%%-%-%&%%&-%%%-%&&---%--;-..;9ikcbbbbbbbbbbbbbbbbbbbbbbbbbbbb0X;-%-%-%-%%%-%%%-%%-%%%%**=%*>nnnnnnnn",
"nnnnnnnn*-**-%-%*=-%*%**%-*%-%%-%-%--%%-%--&&&-%%-=%%-;:%o..10ijcbbbvbbbbbbbbbbbbbbbbbbbba.;=%%-%=%%-%%==%%--%-=**%%%-**nnnnnnnn",
"nnnnnnnn%>**-%=%%=%-%-%%-%***=%--&-%-%%--%%%&&&---;-;;;-=;;;+o..:0sxbbbbbbbbbbbbbbbbbbbbblo;-%-%-%%-%--%%-**%*-%*-%--*--nnnnnnnn",
"nnnnnnnn-,**%-%%%**%-%-=%-%=*%-%%%%--&;;;:;;;-&@OoooX..%%%---;;;@o.@wkbbbbbbbbbbbbbbbbbbbc:@-%%=-%-%=%%--%=**%%-=%-%%*>%nnnnnnnn",
"nnnnnnnn-,-%-%%--%***-%%%**-%-%*-%-%-%. ....oo-:2478qrt;%-%=%-=%-;;=X.ubbbbbbbbbbbbbbbbbbb3o-=-%%-%--%%-%=%-%**%*%-%%-,-nnnnnnnn",
"nnnnnnnnn,-%%=-%%-%-=%%-%-=%=%=*%--&@<tuasghllxxvbbbbbb6o--%-%%-%&&-;; ubbbbbbbbbbbbbbbbbb7o-%%-=%%%%=-%**%%%-*=*-%-%*,-nnnnnnnn",
"nnnnnnnnn>-%-%%-*=%%-%**-%**%%-%%%--O1bbbbbbbbbbbbbbbbbr.;%=%=%%&&-%%=;.lbbbbbbbbbbbbbbbbb7o;--%%%-%**%%-%-%-%*%%-*%--,nnnnnnnnn",
"nnnnnnnnn-%-%-=%**-%%-%=%=**-%%-&-%--Olbvbbbbbbbbbbbbbbd.;-%-%-%&&%-%-;.ubbbbbbbbbbbbbbbbv3o-=%=--%=*%--%=**%=*%*%%-%%-nnnnnnnnn",
"nnnnnnnnn->%**-%%=*%%*=%-%-%%-%=-%-%;.hbbbbbbbbbbbbbbbbx-=-%%-%-&%-%-%;oqbbbbbbbbbbbbbbbbv<@--%%%--%%-=%%-**=%%-*%-%%-%nnnnnnnnn",
"nnnnnnnnn*,-*%%--**-**%-%-%*%%-*%-%=;.abbbbbbbbbbbbbbbbbr.:%-%=%%--&%%;.ubbbbbbbbbbbbbbbblo-=%-%=%%-=%***%*%%--%*=-%->-nnnnnnnnn",
"nnnnnnnnnn,*=%=%%-%%**-%%%%-****=%-%-o0bbbbbbbbbbbbbbbbbc:O;%--%%-%%--:.jbbbbbbbbbbbbbbbbd.;%--%%%-%%-%%*%-%-**--%%*-,nnnnnnnnnn",
"nnnnnnnnnn***-**%%-%=%-%=%-%=*%%%-%--%;xbbbbbbbbbbbbbbbbbkXo:-%-&%--;: rbbbbbbbbbbbbbbbbbr.;%-%=-%%=-%%-*=%-%%=%%=***-nnnnnnnnnn",
"nnnnnnnnnn->%-%-=%--%-*=%%-%*=%-%-%==;.fbbbbbbbbbbbbbbbbbbk3 X#;;;-O. rbbbbbbbbbbbbbbbbbv1+=-%-%*%%--%*%%-**%--%-**=-*nnnnnnnnnn",
"nnnnnnnnnnn,-%-%%-%%*%**-%***%-%-%-%%;X8bbbbbbbbbbbbbbbbbbbbs0:X..-2qhbbbbbbbbbbbbbbbbbbdX;-%-%%%=*%%=*%-%=**%%-%%-%,-nnnnnnnnnn",
"nnnnnnnnnnn-%=%%=%*%*-%%%-=%%--%%=%--%;.hbbbbbbbbbbbbbbbbbblxklkhfpfkbbbbbbbbbbbbbbbbbbb4o-%-=%--%%--%%-%%-%*==%%=%%-nnnnnnnnnnn",
"nnnnnnnnnnn->%%-****=%%--%%-%-%=-%-%%--o8bbbbbbbbbbbbbbbbbv;. hbbv;%.jbbbbbbbbbbbbbbbbbs.;-=%%-%%-%-%=-%**%%-%**-%->=nnnnnnnnnnn",
"nnnnnnnnnnnn,%-%-%-%*%-%%*%-%%**%--%-%-; fbbbbbbbbbbbbbbbbv3-ofbbx-;okbbbbbbbbbbbbbbbbx%#--%**%--%**%%*==%-%-%%*%%%,-nnnnnnnnnnn",
"nnnnnnnnnnnn%-%-%%%-*-%*=*=*%-%%%%%=%-%=@-xbbbbbbbbbbbbbbbv2-.jbbc-;olbbbbbbbbbbbbbbbb8X;%%-*%-%%***-%**%-*%%=-%%--%nnnnnnnnnnnn",
"nnnnnnnnnnnn*,-%%=%=*%**%%-**=%-=%-%%%%-;o7bbbbbbbbbbbbbbbv2#orsai--olbbbbbbbbbbbbbbbr.;%*%-=%=%-%=%%-%%-%****%*-=,-nnnnnnnnnnnn",
"nnnnnnnnnnnnn***-%-***%*-%%***-%%-%-=--%%;.qbbbbbbbbbbbbbbv2O-o...%;okbbbbbbbbbbbbbbr.;-=**%%-**%=%-=**-%-%=*%-*%%>nnnnnnnnnnnnn",
"nnnnnnnnnnnnn-,-********%=****%**%-%*%**%-;.ebbbbbbbbbbbbbv2O=;::;=;okbbbbbbbbbbbbveX:%%=%=%*%-%%-**=%%-%**=%-%*%>-nnnnnnnnnnnnn",
"nnnnnnnnnnnnnn*%*****%*%-**%%*****%-==*%-%-;.7lbbbbbbbbbbbv2=oacxk--olbbbbbbbbbbbk5.;*%=%-%-%=%--%%-%--%****=%-%-,nnnnnnnnnnnnnn",
"nnnnnnnnnnnnnn*,*****%**%==%**%***-%%-**%%-%;o@ivbbbbbbbbbv2*Xhbbx-;okbbbbbbbbbxtoo;****%=%-=%*%%=%%%%%*-%-%%%-*>-nnnnnnnnnnnnnn",
"nnnnnnnnnnnnnnn*********-%%=****%=%%=%**%=%--;-.<ulbbbbbbbv2=Xgbbx-;okbbbbbbblt& ;--%**%-%-%******-%-=**%-%*%-%*-nnnnnnnnnnnnnnn",
"nnnnnnnnnnnnnnn-,*******%%-%****-%%-%**%=%-%-%-;+.X7uhzbbbb2#Xhbbco=oxbbbxju6o.%;-%-%-**%%***=******%**=****%*%,-nnnnnnnnnnnnnnn",
"nnnnnnnnnnnnnnnn*-***%*%%-***%%*%=*%****-%%%%%-=-;-o..%59ti265dllhq73yiw6:..o;;&%-%=-%*%%-*%%%%***%*-%*%*%%*-**-nnnnnnnnnnnnnnnn",
"nnnnnnnnnnnnnnnnn,%**%****=%********%*%-%%%-%-%%%=%;;;=oX..%-;OoXo:--...o%;;-&%-%-%%%%**%%****%*%*%*%*%-**%%%*,nnnnnnnnnnnnnnnnn",
"nnnnnnnnnnnnnnnnn*,*****%**%*%**%**%**%%-%%=%%%-=%%=%%---;;=%%--;-%%-;;;-&%%&&-%%%%%%******************%**%-%,-nnnnnnnnnnnnnnnnn",
"nnnnnnnnnnnnnnnnnn->#-***#%**************%%******#%**&%*%**%**&%&#***&*%*%***%*&%****%*%%****%*%%***%*#%******nnnnnnnnnnnnnnnnnn",
"nnnnnnnnnnnnnnnnnnn>****%*#**%%**%%**%*%#=***%%*=%**#*****&**#**%**%%#****&%**#**#*%*****#*%************%**%,nnnnnnnnnnnnnnnnnnn",
"nnnnnnnnnnnnnnnnnnnn,*%%**%**%***#%**%**#**%**%&****#**%*******************#***%****#*******#******%*******,*nnnnnnnnnnnnnnnnnnn",
"nnnnnnnnnnnnnnnnnnnn*,*%*******#****#***%***#***%*%*=***%*#*%**%%**%***%*%***%***%**%**%*%**%**%#%**%**%%%,-nnnnnnnnnnnnnnnnnnnn",
"nnnnnnnnnnnnnnnnnnnnn->-**%#*****#***%****%*******#*%***%**%*#*%**%**%***%**#****%*#%****%**%******#***%*>%nnnnnnnnnnnnnnnnnnnnn",
"nnnnnnnnnnnnnnnnnnnnnn*-%***%*%#*%*%***%%**#*%%*%*%&%**%**&*%*****#*#***#*&**%*%*******#***#***#****#****-nnnnnnnnnnnnnnnnnnnnnn",
"nnnnnnnnnnnnnnnnnnnnnnn->=***********#****%**%***********#*************%=#*%****&%*%**#**%*%**#**#**#***-nnnnnnnnnnnnnnnnnnnnnnn",
"nnnnnnnnnnnnnnnnnnnnnnnn%*%**%****%*%*#*******#****%*%*#*%*%***%%*%&%***%***&*%*****%%=*****%%=*%***-***nnnnnnnnnnnnnnnnnnnnnnnn",
"nnnnnnnnnnnnnnnnnnnnnnnnn->-%%-%-%*%**%****#*%**%#***%**#%***&*%**#*%**%*****#%**#%*&%**%*********%*-**nnnnnnnnnnnnnnnnnnnnnnnnn",
"nnnnnnnnnnnnnnnnnnnnnnnnnn%>%%**%#*******%****#***%&*&**=%***%#=*#******%**%%*#***#*****#**%%*%*****>-nnnnnnnnnnnnnnnnnnnnnnnnnn",
"nnnnnnnnnnnnnnnnnnnnnnnnnnn-,*******#****%%****%****%***%*%***#****%***%********%*%*%*%************>*nnnnnnnnnnnnnnnnnnnnnnnnnnn",
"nnnnnnnnnnnnnnnnnnnnnnnnnnnn*,#***%%%**%*****%**#*%*#**%*#****%*%**&*#&*%&#*&*%*******#**%***#%***>%nnnnnnnnnnnnnnnnnnnnnnnnnnnn",
"nnnnnnnnnnnnnnnnnnnnnnnnnnnnn->-**%-#*%*******#%*%***%****%*****%**%%*%**********%**&%*****%%%%%*>*nnnnnnnnnnnnnnnnnnnnnnnnnnnnn",
"nnnnnnnnnnnnnnnnnnnnnnnnnnnnnnn*,**#****#%%***%-***%***%%****%%*********%**%*%*%***%***#%*#*%%->*nnnnnnnnnnnnnnnnnnnnnnnnnnnnnnn",
"nnnnnnnnnnnnnnnnnnnnnnnnnnnnnnnn*,****%*#****%-%*%*#*&***%****%**&*#*&#**#&*#*&**%#*%**%**%%-%,-nnnnnnnnnnnnnnnnnnnnnnnnnnnnnnnn",
"nnnnnnnnnnnnnnnnnnnnnnnnnnnnnnnnnn*,*****%****%#*&**%*#***&#*#*&#***%**%**%**%*#***&****%**%,%nnnnnnnnnnnnnnnnnnnnnnnnnnnnnnnnnn",
"nnnnnnnnnnnnnnnnnnnnnnnnnnnnnnnnnnn=-,%-%-%%**%**#*%**%*%**%**%*=*****%#**%*******%*#-%%%%>>=nnnnnnnnnnnnnnnnnnnnnnnnnnnnnnnnnnn",
"nnnnnnnnnnnnnnnnnnnnnnnnnnnnnnnnnnnnn*>>%%*%%%**%***%*******%**#%%%******%*%*%*#*%**%%-->,-nnnnnnnnnnnnnnnnnnnnnnnnnnnnnnnnnnnnn",
"nnnnnnnnnnnnnnnnnnnnnnnnnnnnnnnnnnnnnnn->>**%%*******#%**##******%***%*#*%*-*%%*#-****>>=nnnnnnnnnnnnnnnnnnnnnnnnnnnnnnnnnnnnnnn",
"nnnnnnnnnnnnnnnnnnnnnnnnnnnnnnnnnnnnnnnnn*%,>*%***%*****%***%**%**#***%****#********,*#nnnnnnnnnnnnnnnnnnnnnnnnnnnnnnnnnnnnnnnnn",
"nnnnnnnnnnnnnnnnnnnnnnnnnnnnnnnnnnnnnnnnnnnn->,*%***%%-%**%**%*****%******%***#*-,>--nnnnnnnnnnnnnnnnnnnnnnnnnnnnnnnnnnnnnnnnnnn",
"nnnnnnnnnnnnnnnnnnnnnnnnnnnnnnnnnnnnnnnnnnnnnn%-*,>>%%%%****%%***%#*&****%%**>,>-*nnnnnnnnnnnnnnnnnnnnnnnnnnnnnnnnnnnnnnnnnnnnnn",
"nnnnnnnnnnnnnnnnnnnnnnnnnnnnnnnnnnnnnnnnnnnnnnnnnn%%>,>>*>*#%%%-%****#-*>,,---%nnnnnnnnnnnnnnnnnnnnnnnnnnnnnnnnnnnnnnnnnnnnnnnnn",
"nnnnnnnnnnnnnnnnnnnnnnnnnnnnnnnnnnnnnnnnnnnnnnnnnnnnnn*****->>,,>>>>>&%=*%nnnnnnnnnnnnnnnnnnnnnnnnnnnnnnnnnnnnnnnnnnnnnnnnnnnnnn",
"nnnnnnnnnnnnnnnnnnnnnnnnnnnnnnnnnnnnnnnnnnnnnnnnnnnnnnnnnnnnnnnnnnnnnnnnnnnnnnnnnnnnnnnnnnnnnnnnnnnnnnnnnnnnnnnnnnnnnnnnnnnnnnnn",
"nnnnnnnnnnnnnnnnnnnnnnnnnnnnnnnnnnnnnnnnnnnnnnnnnnnnnnnnnnnnnnnnnnnnnnnnnnnnnnnnnnnnnnnnnnnnnnnnnnnnnnnnnnnnnnnnnnnnnnnnnnnnnnnn",
"nnnnnnnnnnnnnnnnnnnnnnnnnnnnnnnnnnnnnnnnnnnnnnnnnnnnnnnnnnnnnnnnnnnnnnnnnnnnnnnnnnnnnnnnnnnnnnnnnnnnnnnnnnnnnnnnnnnnnnnnnnnnnnnn",
"nnnnnnnnnnnnnnnnnnnnnnnnnnnnnnnnnnnnnnnnnnnnnnnnnnnnnnnnnnnnnnnnnnnnnnnnnnnnnnnnnnnnnnnnnnnnnnnnnnnnnnnnnnnnnnnnnnnnnnnnnnnnnnnn",
"nnnnnnnnnnnnnnnnnnnnnnnnnnnnnnnnnnnnnnnnnnnnnnnnnnnnnnnnnnnnnnnnnnnnnnnnnnnnnnnnnnnnnnnnnnnnnnnnnnnnnnnnnnnnnnnnnnnnnnnnnnnnnnnn",
"nnnnnnnnnnnnnnnnnnnnnnnnnnnnnnnnnnnnnnnnnnnnnnnnnnnnnnnnnnnnnnnnnnnnnnnnnnnnnnnnnnnnnnnnnnnnnnnnnnnnnnnnnnnnnnnnnnnnnnnnnnnnnnnn",
"nnnnnnnnnnnnnnnnnnnnnnnnnnnnnnnnnnnnnnnnnnnnnnnnnnnnnnnnnnnnnnnnnnnnnnnnnnnnnnnnnnnnnnnnnnnnnnnnnnnnnnnnnnnnnnnnnnnnnnnnnnnnnnnn",
"nnnnnnnnnnnnnnnnnnnnnnnnnnnnnnnnnnnnnnnnnnnnnnnnnnnnnnnnnnnnnnnnnnnnnnnnnnnnnnnnnnnnnnnnnnnnnnnnnnnnnnnnnnnnnnnnnnnnnnnnnnnnnnnn"
};
