/* XPM */
static char *bf7db67a1aaa493bf29ca6d5492a006a[] = {
/* columns rows colors chars-per-pixel */
"64 64 51 1 ",
"  c #F77900",
". c #F78600",
"X c #F78D00",
"o c #F79000",
"O c #F89400",
"+ c #F8960B",
"@ c #F89614",
"# c #F8971C",
"$ c #F79725",
"% c #F89725",
"& c #F79826",
"* c #F89826",
"= c #F79928",
"- c #F99929",
"; c #F89A34",
": c #F89C3B",
"> c #FFA127",
", c #FFA229",
"< c #F89E43",
"1 c #F89F49",
"2 c #F8A04C",
"3 c #F8A254",
"4 c #F8A55B",
"5 c #F9A762",
"6 c #F9A965",
"7 c #F9AA6B",
"8 c #F9AE74",
"9 c #F9B17B",
"0 c #F9B482",
"q c #F9B789",
"w c #FAB98C",
"e c #FABD94",
"r c #FABF99",
"t c #FAC19C",
"y c #FAC6A4",
"u c #FBC9AA",
"i c #FBCEB4",
"p c #FBD0B6",
"a c #FBD3BB",
"s c #FCD7C2",
"d c #FCD9C6",
"f c #FCDECD",
"g c #FCE2D3",
"h c #FDE6DA",
"j c #FDE9DE",
"k c #FDECE3",
"l c #FEF2EB",
"z c #FEF6F2",
"x c #FEF9F6",
"c c #FFFFFE",
"v c None",
/* pixels */
"vvvvvvvvvvvvvvvvvvvvvvvvvvvvvvvvvvvvvvvvvvvvvvvvvvvvvvvvvvvvvvvv",
"vvvvvvvvvvvvvvvvvvvvvvvvvvvvvvvvvvvvvvvvvvvvvvvvvvvvvvvvvvvvvvvv",
"vvvvvvvvvvvvvvvvvvvvvvvvvvvvvvvvvvvvvvvvvvvvvvvvvvvvvvvvvvvvvvvv",
"vvvvvvvvvvvvvvvvvvvvvvvvvvvvvvvvvvvvvvvvvvvvvvvvvvvvvvvvvvvvvvvv",
"vvvvvvvvvvvvvvvvvvvvvvvvvv------,---*-vvvvvvvvvvvvvvvvvvvvvvvvvv",
"vvvvvvvvvvvvvvvvvvvvvv---,,,-----*--,,,---vvvvvvvvvvvvvvvvvvvvvv",
"vvvvvvvvvvvvvvvvvvvv--,,---*------*-=---,,--vvvvvvvvvvvvvvvvvvvv",
"vvvvvvvvvvvvvvvvvv-,,-&----*---**==-----*--,,-vvvvvvvvvvvvvvvvvv",
"vvvvvvvvvvvvvvvv--,&-&&-=--*--=--==*---=*--=&,-*vvvvvvvvvvvvvvvv",
"vvvvvvvvvvvvvvv-,------&=--=-*=-----*=-=--*=-=*,-vvvvvvvvvvvvvvv",
"vvvvvvvvvvvvvv-,-&&-----*--=-=------==-*=-------,-vvvvvvvvvvvvvv",
"vvvvvvvvvvvvv--------&&-----*=*=-*==---=-=----&----vvvvvvvvvvvvv",
"vvvvvvvvvvvv,-*------=---*-----=-=-----==--=--&--*-,vvvvvvvvvvvv",
"vvvvvvvvvvv--*---*--&-=-==-=**-=*=--==--*==--=--*-*-,vvvvvvvvvvv",
"vvvvvvvvvv*-*-*--&&--&---*=***-*-**-===-*--=&*--=--*-*vvvvvvvvvv",
"vvvvvvvvv-,--*-*&-&--&---*;;;;&*&*-;;;-*----&*-&=-*--,-vvvvvvvvv",
"vvvvvvvvv,--*--=**--==**:-ooX+:::<+XXo*;-*=-**-****---,*vvvvvvvv",
"vvvvvvvv**-=-****--*-&;-XO9ugw.32Xtgiq;X#;*--*=***=-**--vvvvvvvv",
"vvvvvvv-;*--***-=-=-=;OOylccckp24akcccla;O;*-=*----=*----vvvvvvv",
"vvvvvvv,$-$-*--*****;O3kccccccc69cccccccz8o;*=**-***-*-=,vvvvvvv",
"vvvvvv-,-$-%-$--**&;O3zcccccccc58ccccccccx7O;%**=&*=***=,*vvvvvv",
"vvvvvv-*-%%-%-$$***;Ojccccccccc69ccccccccckO;=****-*=-=&*-vvvvvv",
"vvvvvv,*-$;%-%$-=*;oecccccccczf27xcccccccccrX;**=*****=--,-vvvvv",
"vvvvv*,--%$%-%$-**;Xgccccccck<X%*;fccccccccgX;=****=*-**--*vvvvv",
"vvvvv**-=*-&$$-$*-=-lcccccccrX1;;Oolcccccccx:#**---*=*=***-vvvvv",
"vvvvv,-****=-$$-*-#<zcccccccdXXO-<Xpcccxxllk4O;*---*%=*=-*,vvvvv",
"vvvv*,**=*=*$-%-**&;zcccccccchr5@XX<q9742;#o*-==$-*=*==**-,*vvvv",
"vvvv*,***=*=-$--=*;ojccccccccccclfy7X.X@**---***-$********,*vvvv",
"vvvv*-**=***---%**;Xucccccccccccccccls0OX;;%-$-$$$-%***-**-*vvvv",
"vvvv*--**=*=--%-&-=#;zcxccccccccccccccckrX+;%-%--$$-**-*-*-*vvvv",
"vvvv--**==%*%%--=**;o8ccccccccccccccccccch1o;%%%%--%*******-vvvv",
"vvvv-***%*%*%-%%**=*;o8lccccccccccccccccccl1X;-$-$-%******--vvvv",
"vvvv*****%%*%*%**&***;o*pxcccccccccccccccccjo;*******%**%=*-vvvv",
"vvvv******==*******%**;*X<yjxcccccccccccccccro;*****=%**%*%-vvvv",
"vvvv*-*****%&**&***;;;;;<=oo4tskxcccccccccccgo;****&=***===*vvvv",
"vvvv*>**=%=%**%*&**ooXXXXXoO+XXo4ykcccccccccx:#-&***%**%*%%%vvvv",
"vvvv*-****%**&%**%;0etuisdhyo:;;OXXpccccccccc4o-***%=*=***-*vvvv",
"vvvv*,**%=******=@<xcccccccjo:*--;;Xkcccccccx5O-***=*%%***,*vvvv",
"vvvvv,***=*%*****;okcxcccccx4O;*==<Xgcccccccx:#=%%*%*=*=**,vvvvv",
"vvvvv**=%%*=&****;osccccccccgXX&-@X3xcccccccjo;*=****%*%**-vvvvv",
"vvvvv*>***&****&*;o0cccccccccjq:o4qlccccccccuX;&%*%******-*vvvvv",
"vvvvvv,*****&*****;Xjccccccccktkk0gccccccccz;#-****&**&**,*vvvvv",
"vvvvvv**&*********-o7ccccccccp xcXtccccccccwX;%*=****&*&*-vvvvvv",
"vvvvvv*,***&**&***%;XycccccccsX89oucccccccuX;%*&*%******,*vvvvvv",
"vvvvvvv-&*****%&****;XyxcccxcaXtyXucccccxyX;*&****=%****,vvvvvvv",
"vvvvvvv*>***%****%***;X6fxcccs.xcXycccxd4X;******%*****,*vvvvvvv",
"vvvvvvvv*****&**%**%**;oX1eahu+hl1rjar<XO;%************-vvvvvvvv",
"vvvvvvvvv,*%**%**&**%**;;@XXXO:--<#XXX@;-=**%%&%%&*%**,*vvvvvvvv",
"vvvvvvvvv*>*******&*******;;;*#**#=;;;*=*****&*#*%&**-*vvvvvvvvv",
"vvvvvvvvvv*>*******#&***&****&****%****#*=#*******#***vvvvvvvvvv",
"vvvvvvvvvvv-**#*&*****#****&*%**%**#*&***********&**>vvvvvvvvvvv",
"vvvvvvvvvvvv*****#*****&***#**%&&**%**%*#&*=#****%*>vvvvvvvvvvvv",
"vvvvvvvvvvvvv--*#**&****%&*%&*#******&*****&*#**%*>vvvvvvvvvvvvv",
"vvvvvvvvvvvvvv*,*******#****#***#*&%**%*********-*vvvvvvvvvvvvvv",
"vvvvvvvvvvvvvvv*,*&*******&%*&**#****#%*%**#***,*vvvvvvvvvvvvvvv",
"vvvvvvvvvvvvvvvv**>**#***#****%*=*%**&***&***>-*vvvvvvvvvvvvvvvv",
"vvvvvvvvvvvvvvvvvv*>>******#***************>>*vvvvvvvvvvvvvvvvvv",
"vvvvvvvvvvvvvvvvvvvv**,-******#*%&**#***>,**vvvvvvvvvvvvvvvvvvvv",
"vvvvvvvvvvvvvvvvvvvvvv***,>>******#->,,***vvvvvvvvvvvvvvvvvvvvvv",
"vvvvvvvvvvvvvvvvvvvvvvvvvv****--*****-vvvvvvvvvvvvvvvvvvvvvvvvvv",
"vvvvvvvvvvvvvvvvvvvvvvvvvvvvvvvvvvvvvvvvvvvvvvvvvvvvvvvvvvvvvvvv",
"vvvvvvvvvvvvvvvvvvvvvvvvvvvvvvvvvvvvvvvvvvvvvvvvvvvvvvvvvvvvvvvv",
"vvvvvvvvvvvvvvvvvvvvvvvvvvvvvvvvvvvvvvvvvvvvvvvvvvvvvvvvvvvvvvvv",
"vvvvvvvvvvvvvvvvvvvvvvvvvvvvvvvvvvvvvvvvvvvvvvvvvvvvvvvvvvvvvvvv"
};
